<svg width="17" height="16" viewBox="0 0 17 16" fill="none" xmlns="http://www.w3.org/2000/svg">
<path fill-rule="evenodd" clip-rule="evenodd" d="M8.50065 13.3335C11.4462 13.3335 13.834 10.9457 13.834 8.00016C13.834 5.05464 11.4462 2.66683 8.50065 2.66683C5.55513 2.66683 3.16732 5.05464 3.16732 8.00016C3.16732 10.9457 5.55513 13.3335 8.50065 13.3335ZM8.50065 14.6668C12.1825 14.6668 15.1673 11.6821 15.1673 8.00016C15.1673 4.31826 12.1825 1.3335 8.50065 1.3335C4.81875 1.3335 1.83398 4.31826 1.83398 8.00016C1.83398 11.6821 4.81875 14.6668 8.50065 14.6668Z" fill="#23262F"/>
<path d="M7.83398 4.66667C7.83398 4.29848 8.13246 4 8.50065 4C8.86884 4 9.16732 4.29848 9.16732 4.66667C10.2719 4.66667 11.1673 5.5621 11.1673 6.66667C11.1673 7.03486 10.8688 7.33333 10.5007 7.33333C10.1325 7.33333 9.83398 7.03486 9.83398 6.66667C9.83398 6.29848 9.53551 6 9.16732 6H7.66293C7.38921 6 7.16732 6.22189 7.16732 6.49561C7.16732 6.70894 7.30382 6.89833 7.5062 6.96579L9.91674 7.7693C10.6636 8.01825 11.1673 8.71716 11.1673 9.50439C11.1673 10.5145 10.3485 11.3333 9.33837 11.3333H9.16732C9.16732 11.7015 8.86884 12 8.50065 12C8.13246 12 7.83398 11.7015 7.83398 11.3333C6.72941 11.3333 5.83398 10.4379 5.83398 9.33333C5.83398 8.96514 6.13246 8.66667 6.50065 8.66667C6.86884 8.66667 7.16732 8.96514 7.16732 9.33333C7.16732 9.70152 7.46579 10 7.83398 10H9.33837C9.61209 10 9.83398 9.77811 9.83398 9.50439C9.83398 9.29106 9.69748 9.10167 9.4951 9.03421L7.08457 8.2307C6.33773 7.98176 5.83398 7.28284 5.83398 6.49561C5.83398 5.48551 6.65283 4.66667 7.66293 4.66667H7.83398Z" fill="#23262F"/>
</svg>
