<svg width="17" height="16" viewBox="0 0 17 16" fill="none" xmlns="http://www.w3.org/2000/svg">
<path d="M12.5007 7.2135C12.3238 7.2135 12.1543 7.28373 12.0292 7.40876C11.9042 7.53378 11.834 7.70335 11.834 7.88016V12.6668C11.834 12.8436 11.7637 13.0132 11.6387 13.1382C11.5137 13.2633 11.3441 13.3335 11.1673 13.3335H3.83398C3.65717 13.3335 3.4876 13.2633 3.36258 13.1382C3.23756 13.0132 3.16732 12.8436 3.16732 12.6668V5.3335C3.16732 5.15669 3.23756 4.98712 3.36258 4.86209C3.4876 4.73707 3.65717 4.66683 3.83398 4.66683H8.62065C8.79746 4.66683 8.96703 4.59659 9.09206 4.47157C9.21708 4.34654 9.28732 4.17697 9.28732 4.00016C9.28732 3.82335 9.21708 3.65378 9.09206 3.52876C8.96703 3.40373 8.79746 3.3335 8.62065 3.3335H3.83398C3.30355 3.3335 2.79484 3.54421 2.41977 3.91928C2.0447 4.29436 1.83398 4.80306 1.83398 5.3335V12.6668C1.83398 13.1973 2.0447 13.706 2.41977 14.081C2.79484 14.4561 3.30355 14.6668 3.83398 14.6668H11.1673C11.6978 14.6668 12.2065 14.4561 12.5815 14.081C12.9566 13.706 13.1673 13.1973 13.1673 12.6668V7.88016C13.1673 7.70335 13.0971 7.53378 12.9721 7.40876C12.847 7.28373 12.6775 7.2135 12.5007 7.2135ZM15.114 1.74683C15.0463 1.58393 14.9169 1.45448 14.754 1.38683C14.6738 1.35267 14.5878 1.33455 14.5007 1.3335H10.5007C10.3238 1.3335 10.1543 1.40373 10.0292 1.52876C9.90422 1.65378 9.83398 1.82335 9.83398 2.00016C9.83398 2.17697 9.90422 2.34654 10.0292 2.47157C10.1543 2.59659 10.3238 2.66683 10.5007 2.66683H12.894L6.02732 9.52683C5.96483 9.5888 5.91524 9.66254 5.88139 9.74378C5.84754 9.82502 5.83012 9.91216 5.83012 10.0002C5.83012 10.0882 5.84754 10.1753 5.88139 10.2565C5.91524 10.3378 5.96483 10.4115 6.02732 10.4735C6.08929 10.536 6.16303 10.5856 6.24427 10.6194C6.32551 10.6533 6.41264 10.6707 6.50065 10.6707C6.58866 10.6707 6.6758 10.6533 6.75704 10.6194C6.83828 10.5856 6.91201 10.536 6.97398 10.4735L13.834 3.60683V6.00016C13.834 6.17697 13.9042 6.34654 14.0292 6.47157C14.1543 6.59659 14.3238 6.66683 14.5007 6.66683C14.6775 6.66683 14.847 6.59659 14.9721 6.47157C15.0971 6.34654 15.1673 6.17697 15.1673 6.00016V2.00016C15.1663 1.91304 15.1481 1.82698 15.114 1.74683V1.74683Z" fill="white"/>
</svg>
