<svg width="20" height="20" viewBox="0 0 20 20" fill="none" xmlns="http://www.w3.org/2000/svg">
<path d="M8.1896 8.3903C7.6196 8.3903 7.1696 8.8903 7.1696 9.5003C7.1696 10.1103 7.6296 10.6103 8.1896 10.6103C8.7596 10.6103 9.2096 10.1103 9.2096 9.5003C9.2196 8.8903 8.7596 8.3903 8.1896 8.3903ZM11.8396 8.3903C11.2696 8.3903 10.8196 8.8903 10.8196 9.5003C10.8196 10.1103 11.2796 10.6103 11.8396 10.6103C12.4096 10.6103 12.8596 10.1103 12.8596 9.5003C12.8596 8.8903 12.4096 8.3903 11.8396 8.3903Z" fill="#B1B5C4"/>
<path d="M16.7 0H3.3C2.17 0 1.25 0.92 1.25 2.06V15.58C1.25 16.72 2.17 17.64 3.3 17.64H14.64L14.11 15.79L15.39 16.98L16.6 18.1L18.75 20V2.06C18.75 0.92 17.83 0 16.7 0ZM12.84 13.06C12.84 13.06 12.48 12.63 12.18 12.25C13.49 11.88 13.99 11.06 13.99 11.06C13.58 11.33 13.19 11.52 12.84 11.65C12.34 11.86 11.86 12 11.39 12.08C10.43 12.26 9.55 12.21 8.8 12.07C8.23 11.96 7.74 11.8 7.33 11.64C7.1 11.55 6.85 11.44 6.6 11.3C6.57 11.28 6.54 11.27 6.51 11.25C6.49 11.24 6.48 11.23 6.47 11.22C6.29 11.12 6.19 11.05 6.19 11.05C6.19 11.05 6.67 11.85 7.94 12.23C7.64 12.61 7.27 13.06 7.27 13.06C5.06 12.99 4.22 11.54 4.22 11.54C4.22 8.32 5.66 5.71 5.66 5.71C7.1 4.63 8.47 4.66 8.47 4.66L8.57 4.78C6.77 5.3 5.94 6.09 5.94 6.09C5.94 6.09 6.16 5.97 6.53 5.8C7.6 5.33 8.45 5.2 8.8 5.17C8.86 5.16 8.91 5.15 8.97 5.15C9.58 5.07 10.27 5.05 10.99 5.13C11.94 5.24 12.96 5.52 14 6.09C14 6.09 13.21 5.34 11.51 4.82L11.65 4.66C11.65 4.66 13.02 4.63 14.46 5.71C14.46 5.71 15.9 8.32 15.9 11.54C15.9 11.54 15.05 12.99 12.84 13.06Z" fill="#B1B5C4"/>
</svg>
