<svg width="20" height="20" viewBox="0 0 20 20" fill="none" xmlns="http://www.w3.org/2000/svg">
<path d="M11.2812 9.85626C11.2812 12.9985 8.75579 15.5458 5.6407 15.5458C2.52561 15.5458 0 12.9979 0 9.85626C0 6.71457 2.52542 4.1665 5.6407 4.1665C8.75598 4.1665 11.2812 6.71399 11.2812 9.85626Z" fill="#B1B5C4"/>
<path d="M17.4685 9.85662C17.4685 12.8144 16.2058 15.2131 14.6482 15.2131C13.0905 15.2131 11.8278 12.8144 11.8278 9.85662C11.8278 6.89886 13.0903 4.50016 14.648 4.50016C16.2056 4.50016 17.4685 6.89809 17.4685 9.85662Z" fill="#B1B5C4"/>
<path d="M19.9996 9.85697C19.9996 12.5064 19.5556 14.6555 19.0077 14.6555C18.4598 14.6555 18.016 12.507 18.016 9.85697C18.016 7.20697 18.46 5.05843 19.0077 5.05843C19.5554 5.05843 19.9996 7.20677 19.9996 9.85697Z" fill="#B1B5C4"/>
</svg>
