<svg width="20" height="20" viewBox="0 0 20 20" fill="none" xmlns="http://www.w3.org/2000/svg">
<path fill-rule="evenodd" clip-rule="evenodd" d="M20 10C20 15.5228 15.5228 20 10 20C4.47715 20 0 15.5228 0 10C0 4.47715 4.47715 0 10 0C15.5228 0 20 4.47715 20 10ZM10.3576 7.38295C9.38499 7.78751 7.44107 8.62484 4.52587 9.89494C4.05248 10.0832 3.8045 10.2674 3.78193 10.4474C3.74378 10.7518 4.12488 10.8716 4.64385 11.0348C4.71444 11.057 4.78759 11.08 4.86257 11.1043C5.37315 11.2703 6.05998 11.4645 6.41703 11.4722C6.74091 11.4792 7.10239 11.3457 7.50149 11.0716C10.2253 9.23301 11.6313 8.30368 11.7195 8.28365C11.7818 8.26951 11.8681 8.25174 11.9266 8.30371C11.9851 8.35568 11.9793 8.45411 11.9731 8.48051C11.9354 8.64146 10.4394 10.0323 9.66521 10.752C9.42387 10.9764 9.25268 11.1355 9.21769 11.1719C9.13929 11.2533 9.05939 11.3303 8.9826 11.4043C8.50826 11.8616 8.15255 12.2045 9.0023 12.7645C9.41065 13.0336 9.73742 13.2561 10.0634 13.4781C10.4194 13.7206 10.7745 13.9624 11.234 14.2636C11.351 14.3403 11.4628 14.42 11.5717 14.4976C11.986 14.793 12.3582 15.0584 12.8181 15.016C13.0853 14.9914 13.3613 14.7402 13.5015 13.9908C13.8328 12.2198 14.484 8.38256 14.6345 6.80132C14.6477 6.66278 14.6311 6.48548 14.6177 6.40765C14.6044 6.32982 14.5766 6.21893 14.4754 6.13684C14.3556 6.03962 14.1707 6.01912 14.0879 6.02058C13.7118 6.0272 13.1347 6.22786 10.3576 7.38295Z" fill="#B1B5C4"/>
</svg>
