<svg width="20" height="20" viewBox="0 0 20 20" fill="none" xmlns="http://www.w3.org/2000/svg">
<path d="M6.2918 17.9171C13.8371 17.9171 17.9652 11.6644 17.9652 6.24366C17.9652 6.06788 17.9613 5.8882 17.9535 5.71241C18.7566 5.13167 19.4496 4.41233 20 3.5882C19.2521 3.92095 18.458 4.13827 17.6449 4.23273C18.5011 3.71954 19.1421 2.91334 19.4492 1.96359C18.6438 2.44091 17.763 2.77762 16.8445 2.95929C16.2257 2.30175 15.4075 1.86638 14.5164 1.72049C13.6253 1.5746 12.711 1.72632 11.9148 2.15219C11.1186 2.57807 10.4848 3.25437 10.1115 4.07654C9.73825 4.89871 9.64619 5.82096 9.84961 6.7007C8.21874 6.61886 6.62328 6.1952 5.16665 5.4572C3.71002 4.71919 2.42474 3.68331 1.39414 2.41671C0.870333 3.31982 0.710047 4.38849 0.945859 5.40552C1.18167 6.42256 1.79589 7.31165 2.66367 7.8921C2.01219 7.87142 1.37498 7.69601 0.804688 7.38038V7.43116C0.804104 8.37891 1.13175 9.2976 1.73192 10.0311C2.3321 10.7646 3.16777 11.2676 4.09687 11.4546C3.49338 11.6197 2.85999 11.6438 2.2457 11.5249C2.50788 12.34 3.01798 13.0529 3.70481 13.5641C4.39164 14.0753 5.22093 14.3593 6.07695 14.3765C4.62369 15.518 2.82848 16.1372 0.980469 16.1343C0.652739 16.1338 0.325333 16.1137 0 16.0741C1.87738 17.2786 4.06128 17.9183 6.2918 17.9171Z" fill="#B1B5C4"/>
</svg>
