<svg width="16" height="16" viewBox="0 0 16 16" fill="none" xmlns="http://www.w3.org/2000/svg">
<path fill-rule="evenodd" clip-rule="evenodd" d="M12.666 3.33333H3.33268C2.5963 3.33333 1.99935 3.93029 1.99935 4.66667V11.3333C1.99935 12.0697 2.5963 12.6667 3.33268 12.6667H12.666C13.4024 12.6667 13.9993 12.0697 13.9993 11.3333V4.66667C13.9993 3.93029 13.4024 3.33333 12.666 3.33333ZM3.33268 2C1.85992 2 0.666016 3.19391 0.666016 4.66667V11.3333C0.666016 12.8061 1.85992 14 3.33268 14H12.666C14.1388 14 15.3327 12.8061 15.3327 11.3333V4.66667C15.3327 3.19391 14.1388 2 12.666 2H3.33268Z" fill="#23262F"/>
<path fill-rule="evenodd" clip-rule="evenodd" d="M8.66602 7.99984C8.66602 6.15889 10.1584 4.6665 11.9993 4.6665H14.666C15.0342 4.6665 15.3327 4.96498 15.3327 5.33317C15.3327 5.70136 15.0342 5.99984 14.666 5.99984H11.9993C10.8948 5.99984 9.99935 6.89527 9.99935 7.99984C9.99935 9.10441 10.8948 9.99984 11.9993 9.99984H14.666C15.0342 9.99984 15.3327 10.2983 15.3327 10.6665C15.3327 11.0347 15.0342 11.3332 14.666 11.3332H11.9993C10.1584 11.3332 8.66602 9.84079 8.66602 7.99984Z" fill="#23262F"/>
<path d="M12.6673 8.00016C12.6673 8.36835 12.3688 8.66683 12.0007 8.66683C11.6325 8.66683 11.334 8.36835 11.334 8.00016C11.334 7.63197 11.6325 7.3335 12.0007 7.3335C12.3688 7.3335 12.6673 7.63197 12.6673 8.00016Z" fill="#23262F"/>
</svg>
